HIERARCHY
ROOT joint_Root
{
	OFFSET 0.0 0.0 0.0
	CHANNELS 6 Xposition Yposition Zposition Zrotation Xrotation Yrotation 
	JOINT Hips
	{
		OFFSET -0.726466 93.3139 -2.00062
		CHANNELS 6 Xposition Yposition Zposition Zrotation Xrotation Yrotation 
		JOINT Spine
		{
			OFFSET 15.7357 0.0 0.0
			CHANNELS 6 Xposition Yposition Zposition Zrotation Xrotation Yrotation 
			JOINT Chest
			{
				OFFSET 8.98455 -0.406207 0.0
				CHANNELS 6 Xposition Yposition Zposition Zrotation Xrotation Yrotation 
				JOINT Neck
				{
					OFFSET 16.3773 0.0 0.0
					CHANNELS 6 Xposition Yposition Zposition Zrotation Xrotation Yrotation 
					JOINT Head
					{
						OFFSET 6.45672 0.0 0.0
						CHANNELS 6 Xposition Yposition Zposition Zrotation Xrotation Yrotation 
						End Site
						{
							OFFSET 0.0 0.0 0.0
						}
					}
				}
				JOINT Shoulder_L
				{
					OFFSET 12.9942 -0.242716 4.98039
					CHANNELS 6 Xposition Yposition Zposition Zrotation Xrotation Yrotation 
					JOINT UpperArm_L
					{
						OFFSET 5.34809 0.0 0.0
						CHANNELS 6 Xposition Yposition Zposition Zrotation Xrotation Yrotation 
						JOINT LowerArm_L
						{
							OFFSET 24.3286 1.87007e-05 0.0
							CHANNELS 6 Xposition Yposition Zposition Zrotation Xrotation Yrotation 
							JOINT Hand_L
							{
								OFFSET 22.2916 0.0 0.0
								CHANNELS 6 Xposition Yposition Zposition Zrotation Xrotation Yrotation 
								End Site
								{
									OFFSET 0.0 0.0 0.0
								}
							}
						}
					}
				}
				JOINT Shoulder_R
				{
					OFFSET 12.9945 -0.242716 -4.98039
					CHANNELS 6 Xposition Yposition Zposition Zrotation Xrotation Yrotation 
					JOINT UpperArm_R
					{
						OFFSET -5.34813 0.0 0.0
						CHANNELS 6 Xposition Yposition Zposition Zrotation Xrotation Yrotation 
						JOINT LowerArm_R
						{
							OFFSET -24.3289 0.000322201 0.0
							CHANNELS 6 Xposition Yposition Zposition Zrotation Xrotation Yrotation 
							JOINT Hand_R
							{
								OFFSET -22.2915 -0.000108084 0.0
								CHANNELS 6 Xposition Yposition Zposition Zrotation Xrotation Yrotation 
								End Site
								{
									OFFSET 0.0 0.0 0.0
								}
							}
						}
					}
				}
			}
		}
		JOINT UpperLeg_L
		{
			OFFSET -2.19248 -6.46944 0.0
			CHANNELS 6 Xposition Yposition Zposition Zrotation Xrotation Yrotation 
			JOINT LowerLeg_L
			{
				OFFSET 39.0811 0.0 -1.23785e-05
				CHANNELS 6 Xposition Yposition Zposition Zrotation Xrotation Yrotation 
				JOINT Foot_L
				{
					OFFSET 40.9854 0.0 -1.26872e-05
					CHANNELS 6 Xposition Yposition Zposition Zrotation Xrotation Yrotation 
					JOINT Toes_L
					{
						OFFSET 11.7543 0.0 0.0
						CHANNELS 6 Xposition Yposition Zposition Zrotation Xrotation Yrotation 
						End Site
						{
							OFFSET 0.0 0.0 0.0
						}
					}
				}
			}
		}
		JOINT UpperLeg_R
		{
			OFFSET -2.19251 6.46944 0.0
			CHANNELS 6 Xposition Yposition Zposition Zrotation Xrotation Yrotation 
			JOINT LowerLeg_R
			{
				OFFSET -39.0811 -0.00228153 -0.0401928
				CHANNELS 6 Xposition Yposition Zposition Zrotation Xrotation Yrotation 
				JOINT Foot_R
				{
					OFFSET -40.9854 0.0 0.0
					CHANNELS 6 Xposition Yposition Zposition Zrotation Xrotation Yrotation 
					JOINT Toes_R
					{
						OFFSET -11.7543 0.0 0.0
						CHANNELS 6 Xposition Yposition Zposition Zrotation Xrotation Yrotation 
						End Site
						{
							OFFSET 0.0 0.0 0.0
						}
					}
				}
			}
		}
	}
}
MOTION
Frames:	4
Frame Time:	0.0333333
0.000000 0.000000 0.000000 0.000000 0.000000 -0.000000 90.576100 89.878800 145.952000 97.943600 -52.779600 6.435560 15.735700 0.000005 -0.000001 112.246000 83.932100 -112.543000 8.984550 -0.406207 -0.000000 3.487970 4.599930 -0.734227 16.377300 -0.000001 -0.000001 1.009120 -9.885600 2.876960 6.456720 -0.000001 -0.000000 4.218610 -16.193100 1.122710 12.994200 -0.242716 4.980390 -89.257900 -1.966340 -69.319200 5.348090 -0.000007 -0.000001 -82.400300 19.827400 5.340040 24.328600 0.000019 0.000005 3.675650 22.988200 -9.340830 22.291600 -0.000001 0.000005 1.200770 5.325800 -0.663693 12.994500 -0.242716 -4.980390 88.472300 5.589960 -74.687800 -5.348130 -0.000001 -0.000004 -48.727500 46.991100 -46.567400 -24.328900 0.000322 -0.000009 6.813440 5.541030 -51.062000 -22.291500 -0.000108 -0.000004 10.173700 5.416500 -3.481710 -2.192480 -6.469440 -0.000000 -176.749000 -8.855560 -18.196300 39.081100 -0.000007 -0.000012 -0.000010 0.000090 5.571930 40.985400 -0.000006 -0.000013 -7.522670 2.163020 -54.019300 11.754300 -0.000000 0.000003 -0.008287 -0.090367 -20.256900 -2.192510 6.469440 -0.000001 -175.933000 -1.540660 -171.692000 -39.081100 -0.002282 -0.040193 -0.017052 0.060366 18.651100 -40.985400 0.000008 0.000006 23.649700 13.477200 -73.775600 -11.754300 -0.000006 -0.000006 -1.280910 -1.453040 -21.526300
0.000000 0.000000 0.000000 0.000000 0.000000 -0.000000 88.677900 89.358500 148.801000 96.563300 -54.715900 5.000020 15.735700 0.000005 -0.000001 112.422000 84.068700 -112.414000 8.984550 -0.406207 -0.000000 3.208130 4.519350 -0.111181 16.377300 -0.000001 -0.000001 0.959144 -9.971960 2.597760 6.456720 -0.000001 -0.000000 4.139980 -16.183500 0.452694 12.994200 -0.242716 4.980390 -89.328800 -1.783050 -69.367400 5.348090 -0.000007 -0.000001 -81.521700 19.832000 4.533890 24.328600 0.000019 0.000005 3.653010 22.938300 -9.303040 22.291600 -0.000001 0.000005 1.857750 5.325970 -0.668045 12.994500 -0.242716 -4.980390 88.521000 5.383670 -74.613700 -5.348130 -0.000001 -0.000004 -47.403800 47.877500 -47.510200 -24.328900 0.000322 -0.000009 6.838880 5.174570 -53.061100 -22.291500 -0.000108 -0.000004 10.290800 5.425640 -3.790820 -2.192480 -6.469440 -0.000000 -177.959000 -12.938000 -20.503400 39.081100 -0.000007 -0.000012 -0.016202 0.191907 4.825450 40.985400 -0.000006 -0.000013 -13.243800 9.150640 -56.275600 11.754300 -0.000000 0.000003 -0.008406 -0.091325 -20.296000 -2.192510 6.469440 -0.000001 -176.147000 -1.586940 -170.645000 -39.081100 -0.002282 -0.040193 -0.002797 0.016969 19.827300 -40.985400 0.000008 0.000006 24.279600 15.095100 -73.796700 -11.754300 -0.000006 -0.000006 -2.747120 -2.883140 -24.173300
0.000000 0.000000 0.000000 0.000000 0.000000 -0.000000 86.516300 88.939700 151.991000 97.804700 -56.190000 6.068520 15.735700 0.000005 -0.000001 110.956000 84.085800 -111.227000 8.984550 -0.406207 -0.000000 3.297730 4.236250 -0.663065 16.377300 -0.000001 -0.000001 1.096990 -10.030800 2.633700 6.456720 -0.000001 -0.000000 4.030040 -16.218600 0.093279 12.994200 -0.242716 4.980390 -89.528900 -1.262940 -69.543000 5.348090 -0.000007 -0.000001 -79.858200 19.974500 3.063720 24.328600 0.000019 0.000005 3.823880 22.288500 -9.994590 22.291600 -0.000001 0.000005 3.004170 5.336300 -0.968611 12.994500 -0.242716 -4.980390 88.382200 5.847110 -74.504800 -5.348130 -0.000001 -0.000004 -46.580400 48.500600 -47.119000 -24.328900 0.000322 -0.000009 6.797500 5.094110 -53.322000 -22.291500 -0.000108 -0.000004 10.007900 5.432590 -4.028570 -2.192480 -6.469440 -0.000000 179.744000 -12.606700 -25.732100 39.081100 -0.000007 -0.000012 -0.038859 0.152439 14.300900 40.985400 -0.000006 -0.000013 -6.062030 9.643900 -57.159000 11.754300 -0.000000 0.000003 -0.008673 -0.093447 -20.382800 -2.192510 6.469440 -0.000001 -178.158000 -1.325710 -169.381000 -39.081100 -0.002282 -0.040193 0.000012 0.008260 21.814500 -40.985400 0.000008 0.000006 24.786700 16.547300 -74.111200 -11.754300 -0.000006 -0.000006 -1.364460 -1.429230 -25.695500
0.000000 0.000000 0.000000 0.000000 0.000000 -0.000000 83.965600 88.597200 155.350000 101.243000 -57.594300 9.218740 15.735700 0.000005 -0.000001 108.852000 84.075400 -109.872000 8.984550 -0.406207 -0.000000 3.489440 3.862240 -2.154600 16.377300 -0.000001 -0.000001 1.293890 -10.108000 2.950050 6.456720 -0.000001 -0.000000 4.180630 -16.180000 -0.073895 12.994200 -0.242716 4.980390 -89.791500 -0.560902 -69.602500 5.348090 -0.000007 -0.000001 -77.549700 20.270300 1.069110 24.328600 0.000019 0.000005 4.000780 20.932100 -11.077200 22.291600 -0.000001 0.000005 4.101780 5.352260 -1.441690 12.994500 -0.242716 -4.980390 88.134300 6.838110 -74.698900 -5.348130 -0.000001 -0.000004 -46.699800 49.021300 -45.074400 -24.328900 0.000322 -0.000009 6.600760 5.216060 -51.849800 -22.291500 -0.000108 -0.000004 9.703050 5.431670 -3.996600 -2.192480 -6.469440 -0.000000 179.177000 -7.770810 -26.552300 39.081100 -0.000007 -0.000012 -0.050340 0.148397 18.738100 40.985400 -0.000006 -0.000013 -5.581950 7.487690 -47.119700 11.754300 -0.000000 0.000003 -0.011659 -0.115655 -21.291200 -2.192510 6.469440 -0.000001 178.532000 -1.104160 -168.436000 -39.081100 -0.002282 -0.040193 -0.009249 0.026905 25.027200 -40.985400 0.000008 0.000006 25.402200 18.169700 -74.097000 -11.754300 -0.000006 -0.000006 -0.048267 -0.291526 -28.574800
